Coordinates
version=1
nRows=38
nColumns=12
inDegrees=yes

Units are S.I. units (second, meters, Newtons, ...)
Angles are in degrees

endheader
time	SC_y	SC_z	SC_x	AC_y	AC_z	AC_x	GH_y	GH_z	GH_yy	EL_x	PS_y
       0.0              -30.19          30.27          39.15          68.84         -5.642          -11.1          172.8          87.93          154.7          24.34          78.07
   0.02435              -30.19          30.26          39.14          68.84         -5.644          -11.1          172.8          87.92          154.7          24.34          78.08
    0.0487               -30.2          30.26          39.14          68.83         -5.646          -11.1          172.8          87.92          154.7          24.34          78.08
   0.07304               -30.2          30.26          39.13          68.83         -5.648          -11.1          172.8          87.91          154.6          24.34          78.08
   0.09739               -30.2          30.25          39.13          68.82          -5.65          -11.1          172.7           87.9          154.6          24.34          78.09
    0.1217              -30.21          30.25          39.13          68.81         -5.652          -11.1          172.7          87.89          154.6          24.34          78.09
    0.1461              -30.21          30.24          39.12          68.81         -5.655          -11.1          172.7          87.89          154.6          24.34           78.1
    0.1704              -30.21          30.24          39.12           68.8         -5.657          -11.1          172.7          87.88          154.6          24.34           78.1
    0.1948              -30.22          30.24          39.11          68.79          -5.66          -11.1          172.7          87.87          154.6          24.34          78.11
    0.2191              -30.22          30.23           39.1          68.78         -5.663          -11.1          172.7          87.86          154.5          24.33          78.11
    0.2435              -30.23          30.22           39.1          68.77         -5.666          -11.1          172.7          87.85          154.5          24.33          78.12
    0.2678              -30.23          30.22          39.09          68.76          -5.67          -11.1          172.7          87.83          154.5          24.33          78.12
    0.2922              -30.24          30.21          39.08          68.75         -5.673          -11.1          172.7          87.82          154.5          24.33          78.13
    0.3165              -30.24          30.21          39.07          68.74         -5.678          -11.1          172.7          87.81          154.4          24.33          78.14
    0.3409              -30.25           30.2          39.07          68.73         -5.682          -11.1          172.7          87.79          154.4          24.33          78.14
    0.3652              -30.26          30.19          39.06          68.71         -5.687          -11.1          172.7          87.77          154.4          24.32          78.15
    0.3896              -30.26          30.18          39.04           68.7         -5.692          -11.1          172.7          87.76          154.3          24.32          78.16
    0.4139              -30.27          30.17          39.03          68.68         -5.697          -11.1          172.7          87.74          154.3          24.32          78.17
    0.4383              -30.28          30.16          39.02          68.67         -5.703          -11.1          172.7          87.71          154.3          24.31          78.18
    0.4626              -30.29          30.15          39.01          68.65          -5.71          -11.1          172.6          87.69          154.2          24.31          78.19
     0.487               -30.3          30.14          38.99          68.62         -5.717          -11.1          172.6          87.66          154.2          24.31          78.21
    0.5113              -30.31          30.12          38.98           68.6         -5.726          -11.1          172.6          87.64          154.1           24.3          78.22
    0.5357              -30.33          30.11          38.96          68.58         -5.735          -11.1          172.6           87.6          154.0           24.3          78.24
      0.56              -30.34          30.09          38.94          68.55         -5.744          -11.1          172.6          87.57          154.0          24.29          78.25
    0.5843              -30.36          30.07          38.91          68.51         -5.755          -11.1          172.6          87.53          153.9          24.29          78.27
    0.6087              -30.37          30.05          38.89          68.48         -5.768          -11.1          172.6          87.49          153.8          24.28          78.29
     0.633              -30.39          30.03          38.86          68.44         -5.781          -11.1          172.5          87.44          153.7          24.28          78.32
    0.6574              -30.42           30.0          38.83          68.39         -5.797          -11.1          172.5          87.38          153.6          24.27          78.35
    0.6817              -30.44          29.97          38.79          68.34         -5.814          -11.1          172.5          87.32          153.5          24.26          78.38
    0.7061              -30.47          29.94          38.75          68.29         -5.834          -11.1          172.4          87.25          153.3          24.25          78.41
    0.7304               -30.5           29.9          38.71          68.22         -5.857          -11.1          172.4          87.17          153.2          24.24          78.45
    0.7548              -30.54          29.86          38.65          68.14         -5.883          -11.1          172.4          87.08          153.0          24.23           78.5
    0.7791              -30.58          29.81          38.59          68.06         -5.913          -11.1          172.3          86.98          152.8          24.21          78.55
    0.8035              -30.64          29.75          38.52          67.96         -5.948          -11.1          172.3          86.85          152.5           24.2          78.61
    0.8278              -30.69          29.68          38.44          67.84         -5.989          -11.1          172.2          86.71          152.2          24.18          78.68
    0.8522              -30.76           29.6          38.34           67.7         -6.037          -11.1          172.1          86.54          151.9          24.15          78.77
    0.8765              -30.85           29.5          38.22          67.53         -6.094          -11.1          172.0          86.34          151.5          24.12          78.87
    0.9009              -30.95          29.39          38.08          67.33         -6.162          -11.1          171.9          86.09          151.0          24.09          78.99
